<svg viewBox="0 0 601 601" fill="none" xmlns="http://www.w3.org/2000/svg" id="el_ej1HaiCFk">
<style>@-webkit-keyframes kf_el_62FKNEHWAo_an_r2foy9aNh{0%{-webkit-transform: translate(17.619800567626953px, 262.4169921875px) translate(-17.619800567626953px, -262.4169921875px) translate(-200px, 0px);transform: translate(17.619800567626953px, 262.4169921875px) translate(-17.619800567626953px, -262.4169921875px) translate(-200px, 0px);}100%{-webkit-transform: translate(17.619800567626953px, 262.4169921875px) translate(-17.619800567626953px, -262.4169921875px) translate(590px, 0px);transform: translate(17.619800567626953px, 262.4169921875px) translate(-17.619800567626953px, -262.4169921875px) translate(590px, 0px);}}@keyframes kf_el_62FKNEHWAo_an_r2foy9aNh{0%{-webkit-transform: translate(17.619800567626953px, 262.4169921875px) translate(-17.619800567626953px, -262.4169921875px) translate(-200px, 0px);transform: translate(17.619800567626953px, 262.4169921875px) translate(-17.619800567626953px, -262.4169921875px) translate(-200px, 0px);}100%{-webkit-transform: translate(17.619800567626953px, 262.4169921875px) translate(-17.619800567626953px, -262.4169921875px) translate(590px, 0px);transform: translate(17.619800567626953px, 262.4169921875px) translate(-17.619800567626953px, -262.4169921875px) translate(590px, 0px);}}@-webkit-keyframes kf_el_ZuZSvAtvZG_an_kHKYmpFRv{16.11%{-webkit-transform: translate(299.1310119628906px, 373.40399169921875px) translate(-299.1310119628906px, -373.40399169921875px) translate(-550px, 0px);transform: translate(299.1310119628906px, 373.40399169921875px) translate(-299.1310119628906px, -373.40399169921875px) translate(-550px, 0px);}62.22%{-webkit-transform: translate(299.1310119628906px, 373.40399169921875px) translate(-299.1310119628906px, -373.40399169921875px) translate(310px, 0px);transform: translate(299.1310119628906px, 373.40399169921875px) translate(-299.1310119628906px, -373.40399169921875px) translate(310px, 0px);}0%{-webkit-transform: translate(299.1310119628906px, 373.40399169921875px) translate(-299.1310119628906px, -373.40399169921875px) translate(-550px, 0px);transform: translate(299.1310119628906px, 373.40399169921875px) translate(-299.1310119628906px, -373.40399169921875px) translate(-550px, 0px);}100%{-webkit-transform: translate(299.1310119628906px, 373.40399169921875px) translate(-299.1310119628906px, -373.40399169921875px) translate(310px, 0px);transform: translate(299.1310119628906px, 373.40399169921875px) translate(-299.1310119628906px, -373.40399169921875px) translate(310px, 0px);}}@keyframes kf_el_ZuZSvAtvZG_an_kHKYmpFRv{16.11%{-webkit-transform: translate(299.1310119628906px, 373.40399169921875px) translate(-299.1310119628906px, -373.40399169921875px) translate(-550px, 0px);transform: translate(299.1310119628906px, 373.40399169921875px) translate(-299.1310119628906px, -373.40399169921875px) translate(-550px, 0px);}62.22%{-webkit-transform: translate(299.1310119628906px, 373.40399169921875px) translate(-299.1310119628906px, -373.40399169921875px) translate(310px, 0px);transform: translate(299.1310119628906px, 373.40399169921875px) translate(-299.1310119628906px, -373.40399169921875px) translate(310px, 0px);}0%{-webkit-transform: translate(299.1310119628906px, 373.40399169921875px) translate(-299.1310119628906px, -373.40399169921875px) translate(-550px, 0px);transform: translate(299.1310119628906px, 373.40399169921875px) translate(-299.1310119628906px, -373.40399169921875px) translate(-550px, 0px);}100%{-webkit-transform: translate(299.1310119628906px, 373.40399169921875px) translate(-299.1310119628906px, -373.40399169921875px) translate(310px, 0px);transform: translate(299.1310119628906px, 373.40399169921875px) translate(-299.1310119628906px, -373.40399169921875px) translate(310px, 0px);}}@-webkit-keyframes kf_el_5HpnoXsxg-_an_mJDf0AV_-{0%{-webkit-transform: translate(105.19071960449219px, 86.86626434326172px) translate(-105.19071960449219px, -86.86626434326172px) translate(0px, 20px);transform: translate(105.19071960449219px, 86.86626434326172px) translate(-105.19071960449219px, -86.86626434326172px) translate(0px, 20px);}50%{-webkit-transform: translate(105.19071960449219px, 86.86626434326172px) translate(-105.19071960449219px, -86.86626434326172px) translate(0px, -20px);transform: translate(105.19071960449219px, 86.86626434326172px) translate(-105.19071960449219px, -86.86626434326172px) translate(0px, -20px);}100%{-webkit-transform: translate(105.19071960449219px, 86.86626434326172px) translate(-105.19071960449219px, -86.86626434326172px) translate(0px, 20px);transform: translate(105.19071960449219px, 86.86626434326172px) translate(-105.19071960449219px, -86.86626434326172px) translate(0px, 20px);}}@keyframes kf_el_5HpnoXsxg-_an_mJDf0AV_-{0%{-webkit-transform: translate(105.19071960449219px, 86.86626434326172px) translate(-105.19071960449219px, -86.86626434326172px) translate(0px, 20px);transform: translate(105.19071960449219px, 86.86626434326172px) translate(-105.19071960449219px, -86.86626434326172px) translate(0px, 20px);}50%{-webkit-transform: translate(105.19071960449219px, 86.86626434326172px) translate(-105.19071960449219px, -86.86626434326172px) translate(0px, -20px);transform: translate(105.19071960449219px, 86.86626434326172px) translate(-105.19071960449219px, -86.86626434326172px) translate(0px, -20px);}100%{-webkit-transform: translate(105.19071960449219px, 86.86626434326172px) translate(-105.19071960449219px, -86.86626434326172px) translate(0px, 20px);transform: translate(105.19071960449219px, 86.86626434326172px) translate(-105.19071960449219px, -86.86626434326172px) translate(0px, 20px);}}@-webkit-keyframes kf_el_C1aKb-Zd8Ep_an_cnuos-ZoA{50%{-webkit-transform: translate(221.03399658203125px, 61.15549850463867px) translate(-221.03399658203125px, -61.15549850463867px) translate(-600px, 0px);transform: translate(221.03399658203125px, 61.15549850463867px) translate(-221.03399658203125px, -61.15549850463867px) translate(-600px, 0px);}88.33%{-webkit-transform: translate(221.03399658203125px, 61.15549850463867px) translate(-221.03399658203125px, -61.15549850463867px) translate(400px, 0px);transform: translate(221.03399658203125px, 61.15549850463867px) translate(-221.03399658203125px, -61.15549850463867px) translate(400px, 0px);}0%{-webkit-transform: translate(221.03399658203125px, 61.15549850463867px) translate(-221.03399658203125px, -61.15549850463867px) translate(-600px, 0px);transform: translate(221.03399658203125px, 61.15549850463867px) translate(-221.03399658203125px, -61.15549850463867px) translate(-600px, 0px);}100%{-webkit-transform: translate(221.03399658203125px, 61.15549850463867px) translate(-221.03399658203125px, -61.15549850463867px) translate(400px, 0px);transform: translate(221.03399658203125px, 61.15549850463867px) translate(-221.03399658203125px, -61.15549850463867px) translate(400px, 0px);}}@keyframes kf_el_C1aKb-Zd8Ep_an_cnuos-ZoA{50%{-webkit-transform: translate(221.03399658203125px, 61.15549850463867px) translate(-221.03399658203125px, -61.15549850463867px) translate(-600px, 0px);transform: translate(221.03399658203125px, 61.15549850463867px) translate(-221.03399658203125px, -61.15549850463867px) translate(-600px, 0px);}88.33%{-webkit-transform: translate(221.03399658203125px, 61.15549850463867px) translate(-221.03399658203125px, -61.15549850463867px) translate(400px, 0px);transform: translate(221.03399658203125px, 61.15549850463867px) translate(-221.03399658203125px, -61.15549850463867px) translate(400px, 0px);}0%{-webkit-transform: translate(221.03399658203125px, 61.15549850463867px) translate(-221.03399658203125px, -61.15549850463867px) translate(-600px, 0px);transform: translate(221.03399658203125px, 61.15549850463867px) translate(-221.03399658203125px, -61.15549850463867px) translate(-600px, 0px);}100%{-webkit-transform: translate(221.03399658203125px, 61.15549850463867px) translate(-221.03399658203125px, -61.15549850463867px) translate(400px, 0px);transform: translate(221.03399658203125px, 61.15549850463867px) translate(-221.03399658203125px, -61.15549850463867px) translate(400px, 0px);}}#el_ej1HaiCFk *{-webkit-animation-duration: 6s;animation-duration: 6s;-webkit-animation-iteration-count: infinite;animation-iteration-count: infinite;-webkit-animation-timing-function: cubic-bezier(0, 0, 1, 1);animation-timing-function: cubic-bezier(0, 0, 1, 1);}#el_-Nw-brvDjB{fill: #B0E2F8;}#el_62FKNEHWAo{fill: white;}#el_ZuZSvAtvZG{fill: white;}#el_jWzn8qeyDw{fill: #92573E;}#el_VLsBvt64uA{fill: url(#paint0_linear);}#el_9FskNxGXT8{fill: url(#paint1_linear);}#el_pPqN38CNdR{fill: #FFD600;}#el_HWMV13GZXO{fill: white;}#el_lRsgbTAU56{fill: url(#paint2_linear);}#el_o-bL8Lz8jL{fill: url(#paint3_linear);}#el_987oont9mt{fill: #E46A11;}#el_KRa1z4lqUQ{fill: #E6A600;}#el_7yfzV82s9L{fill: #E6E6E6;}#el_vz9LK_n70c{fill: #CCAB00;}#el_rdVE5MHaFSp{fill: #EE7E16;}#el_C9FgTcUcuHg{fill: #D1610F;}#el_C1aKb-Zd8Ep{fill: white;}#el_C1aKb-Zd8Ep_an_cnuos-ZoA{-webkit-animation-fill-mode: backwards;animation-fill-mode: backwards;-webkit-transform: translate(221.03399658203125px, 61.15549850463867px) translate(-221.03399658203125px, -61.15549850463867px) translate(-600px, 0px);transform: translate(221.03399658203125px, 61.15549850463867px) translate(-221.03399658203125px, -61.15549850463867px) translate(-600px, 0px);-webkit-animation-name: kf_el_C1aKb-Zd8Ep_an_cnuos-ZoA;animation-name: kf_el_C1aKb-Zd8Ep_an_cnuos-ZoA;-webkit-animation-timing-function: cubic-bezier(0, 0, 1, 1);animation-timing-function: cubic-bezier(0, 0, 1, 1);}#el_5HpnoXsxg-_an_mJDf0AV_-{-webkit-animation-fill-mode: backwards;animation-fill-mode: backwards;-webkit-transform: translate(105.19071960449219px, 86.86626434326172px) translate(-105.19071960449219px, -86.86626434326172px) translate(0px, 20px);transform: translate(105.19071960449219px, 86.86626434326172px) translate(-105.19071960449219px, -86.86626434326172px) translate(0px, 20px);-webkit-animation-name: kf_el_5HpnoXsxg-_an_mJDf0AV_-;animation-name: kf_el_5HpnoXsxg-_an_mJDf0AV_-;-webkit-animation-timing-function: cubic-bezier(0.42, 0, 0.58, 1);animation-timing-function: cubic-bezier(0.42, 0, 0.58, 1);}#el_ZuZSvAtvZG_an_kHKYmpFRv{-webkit-animation-fill-mode: backwards;animation-fill-mode: backwards;-webkit-transform: translate(299.1310119628906px, 373.40399169921875px) translate(-299.1310119628906px, -373.40399169921875px) translate(-550px, 0px);transform: translate(299.1310119628906px, 373.40399169921875px) translate(-299.1310119628906px, -373.40399169921875px) translate(-550px, 0px);-webkit-animation-name: kf_el_ZuZSvAtvZG_an_kHKYmpFRv;animation-name: kf_el_ZuZSvAtvZG_an_kHKYmpFRv;-webkit-animation-timing-function: cubic-bezier(0, 0, 1, 1);animation-timing-function: cubic-bezier(0, 0, 1, 1);}#el_62FKNEHWAo_an_r2foy9aNh{-webkit-animation-fill-mode: backwards;animation-fill-mode: backwards;-webkit-transform: translate(17.619800567626953px, 262.4169921875px) translate(-17.619800567626953px, -262.4169921875px) translate(-200px, 0px);transform: translate(17.619800567626953px, 262.4169921875px) translate(-17.619800567626953px, -262.4169921875px) translate(-200px, 0px);-webkit-animation-name: kf_el_62FKNEHWAo_an_r2foy9aNh;animation-name: kf_el_62FKNEHWAo_an_r2foy9aNh;-webkit-animation-timing-function: cubic-bezier(0, 0, 1, 1);animation-timing-function: cubic-bezier(0, 0, 1, 1);}
</style>
	<circle cx="300.138" cy="300.099" r="300" id="el_-Nw-brvDjB"/>
	<g id="el_62FKNEHWAo_an_r2foy9aNh" data-animator-group="true" data-animator-type="0"><path id="el_62FKNEHWAo" d="M167.959 367.535C181.658 367.535 192.763 355.23 192.763 340.051C192.763 324.872 181.658 312.567 167.959 312.567C168.137 311.573 168.232 310.953 168.232 309.902C168.232 301.205 161.596 293.748 153.748 293.748C151.731 293.748 149.812 294.214 148.074 295.053C141.198 275.931 124.337 262.417 104.629 262.417C81.4987 262.417 62.2921 281.03 58.5425 305.477C55.2369 304.105 51.6575 303.356 47.92 303.356C31.1857 303.356 17.6198 318.388 17.6198 336.931C17.6198 355.474 31.1857 370.507 47.92 370.507L167.959 367.535Z"/></g>
	<g id="el_ZuZSvAtvZG_an_kHKYmpFRv" data-animator-group="true" data-animator-type="0"><path id="el_ZuZSvAtvZG" d="M331.767 497.311C313.743 497.311 299.131 482.806 299.131 464.914C299.131 447.022 313.743 432.517 331.767 432.517C331.534 431.346 331.409 430.615 331.409 429.376C331.409 419.124 340.139 410.336 350.467 410.336C353.121 410.336 355.645 410.884 357.932 411.874C366.98 389.334 389.164 373.404 415.097 373.404C445.531 373.404 470.803 395.344 475.737 424.16C480.086 422.544 484.796 421.66 489.714 421.66C511.733 421.66 529.582 439.379 529.582 461.237C529.582 483.094 511.733 500.813 489.714 500.813L331.767 497.311Z"/></g>
	<g id="el_5HpnoXsxg-_an_mJDf0AV_-" data-animator-group="true" data-animator-type="0"><g id="el_5HpnoXsxg-">
		<path d="M279.799 487.867V502.759C279.799 508.835 284.724 513.759 290.799 513.759H307.646C313.721 513.759 318.646 508.835 318.646 502.759V487.867H279.799Z" id="el_jWzn8qeyDw"/>
		<path d="M279.797 469.236C290.282 462.235 304.122 461.297 318.26 469.236C318.26 469.236 304.529 432.602 348.922 370.507C297.338 353.434 235.552 368.649 211.87 396.587C244.649 427.146 278.108 458.371 279.797 469.236Z" id="el_VLsBvt64uA"/>
		<path d="M211.539 396.278L211.87 396.587C235.552 368.649 297.338 353.434 348.922 370.507C353.487 364.12 358.667 357.465 364.541 350.552C377.351 335.475 389.86 318.284 400.226 299.96C314.271 252.233 177.09 295.706 154.662 339.985C165.569 353.42 188.357 374.665 211.539 396.278Z" id="el_9FskNxGXT8"/>
		<path d="M154.662 339.985C177.09 295.706 314.271 252.233 400.226 299.96C411.511 280.009 420.255 258.714 424.079 237.339C334.31 202.482 172.089 199.247 116.113 282.652C124.706 302.056 137.847 319.274 154.662 339.985Z" id="el_pPqN38CNdR"/>
		<path d="M106.027 246.371C107.81 259.869 111.226 271.614 116.113 282.652C172.089 199.247 334.31 202.482 424.079 237.339C426.035 226.407 426.703 215.454 425.766 204.649C298.666 149.432 152.907 193.531 106.027 246.371Z" id="el_HWMV13GZXO"/>
		<path d="M106.027 246.371C152.907 193.531 298.666 149.432 425.766 204.649C424.187 186.425 418.04 168.622 405.799 152.052C294.492 110.72 122.933 136.533 106.027 246.371Z" id="el_lRsgbTAU56"/>
		<path d="M299.131 86.8673C112.159 86.4547 101.111 209.145 106.027 246.371C122.933 136.533 294.492 110.721 405.799 152.052C386.81 126.347 353.154 103.608 299.131 86.8673Z" id="el_o-bL8Lz8jL"/>
		<path d="M495.508 229.252C495.977 178.484 465.028 87.2334 299.131 86.8673C353.154 103.608 386.81 126.347 405.799 152.052C448.885 168.051 482.943 194.111 495.508 229.252Z" id="el_987oont9mt"/>
		<path d="M494.02 246.371C494.882 241.498 495.448 235.702 495.508 229.252C482.943 194.111 448.885 168.051 405.799 152.052C418.04 168.622 424.187 186.425 425.766 204.649C449.416 214.923 472.42 228.636 494.02 246.371Z" id="el_KRa1z4lqUQ"/>
		<path d="M482.502 279.437C492.091 258.878 492.832 253.094 494.02 246.371C472.42 228.636 449.416 214.923 425.767 204.649C426.703 215.454 426.035 226.407 424.079 237.339C453.243 248.663 474.759 263.324 482.502 279.437Z" id="el_7yfzV82s9L"/>
		<path d="M400.226 299.96C417.183 309.375 432.146 322.34 443.841 339.548C463.082 316.067 475.084 295.342 482.502 279.437C474.759 263.324 453.242 248.663 424.079 237.339C420.255 258.714 411.511 280.009 400.226 299.96Z" id="el_vz9LK_n70c"/>
		<path d="M389.193 393.223C411.975 372.857 433 352.779 443.841 339.548C432.146 322.34 417.183 309.375 400.226 299.96C389.86 318.284 377.351 335.475 364.541 350.552C358.667 357.465 353.487 364.12 348.922 370.506C363.529 375.341 377.319 382.766 389.193 393.223Z" id="el_rdVE5MHaFSp"/>
		<path d="M318.26 469.236C321.461 454.059 356.027 422.873 389.193 393.224C377.319 382.766 363.529 375.341 348.922 370.507C304.529 432.602 318.26 469.236 318.26 469.236Z" id="el_C9FgTcUcuHg"/>
	</g></g>
	<g id="el_C1aKb-Zd8Ep_an_cnuos-ZoA" data-animator-group="true" data-animator-type="0"><path id="el_C1aKb-Zd8Ep" d="M519.734 249.636C546.951 249.636 569.015 227.573 569.015 200.356C569.015 173.139 546.951 151.076 519.734 151.076C520.087 149.294 520.275 148.183 520.275 146.298C520.275 130.704 507.093 117.334 491.498 117.334C487.491 117.334 483.678 118.169 480.225 119.674C466.564 85.3875 433.065 61.1555 393.907 61.1555C347.951 61.1555 309.791 94.53 302.341 138.363C295.773 135.905 288.661 134.56 281.236 134.56C247.987 134.56 221.034 161.514 221.034 194.762C221.034 228.011 247.987 254.964 281.236 254.964L519.734 249.636Z"/></g>
	<defs>
		<linearGradient id="paint0_linear" x1="239.679" y1="421.758" x2="330.642" y2="401.983" gradientUnits="userSpaceOnUse">
		<stop stop-color="#E79F11"/>
		<stop offset="1" stop-color="#E76B11"/>
		</linearGradient>
		<linearGradient id="paint1_linear" x1="176.4" y1="359.468" x2="400.226" y2="310.031" gradientUnits="userSpaceOnUse">
		<stop stop-color="#F0D230"/>
		<stop offset="0.911283" stop-color="#F08C30"/>
		</linearGradient>
		<linearGradient id="paint2_linear" x1="106.027" y1="238.842" x2="409.741" y2="174.575" gradientUnits="userSpaceOnUse">
		<stop stop-color="#F9D659"/>
		<stop offset="1" stop-color="#FFB800"/>
		</linearGradient>
		<linearGradient id="paint3_linear" x1="105.191" y1="234.887" x2="320.755" y2="95.4761" gradientUnits="userSpaceOnUse">
		<stop stop-color="#F0AF30"/>
		<stop offset="1" stop-color="#EF7D2B"/>
		</linearGradient>
	</defs>
</svg>