<svg xmlns="http://www.w3.org/2000/svg" viewBox="0 0 256 256">
	<style>
		path { fill: black }
		@media (prefers-color-scheme: dark) {
			path { fill: white }
		}
	</style>
	<path
		d="M103.559 209.461l-33.01 24.243-.29 8.924 17.523 7.258 10.352-11.056 15.048 2.994 5.338 14.175h18.967l5.333-14.176 15.048-2.993 10.357 11.054 17.523-7.259-.498-15.138 12.758-8.523 13.798 6.249 13.412-13.412-6.253-13.795 8.524-12.756 15.14.492 7.258-17.523-11.056-10.352 2.994-15.048L256 137.481v-18.967l-14.176-5.333-2.993-15.048 11.056-10.352-7.258-17.523-15.14.492-8.524-12.757 6.253-13.795-13.412-13.412-13.798 6.249-12.758-8.523.498-15.138-17.523-7.258-10.357 11.053-15.048-2.992L137.487.001H118.52l-5.338 14.175-15.048 2.994L87.782 6.114l-17.523 7.258.29 8.924 33.01 24.243c7.741-2.319 15.946-3.566 24.442-3.566 46.959 0 85.026 38.068 85.026 85.026s-38.067 85.026-85.026 85.026c-8.496 0-16.701-1.246-24.442-3.565z"
	/>
	<path d="M95.2 61.6h26v133h-18v-104l-33 104-33-104v104h-18v-133h26l25 82z" />
</svg>